<?xml version="1.0" encoding="iso-8859-1"?>
<!-- Generator: Adobe Illustrator 18.1.1, SVG Export Plug-In . SVG Version: 6.00 Build 0)  -->
<svg version="1.1" id="Capa_1" xmlns="http://www.w3.org/2000/svg" xmlns:xlink="http://www.w3.org/1999/xlink" x="0px" y="0px"
	 viewBox="0 0 32 32" style="enable-background:new 0 0 32 32;" xml:space="preserve">
<g>
	<g id="cloud">
		<path style="fill:#030104;" d="M24,10c-0.379,0-0.738,0.061-1.102,0.111C21.504,7.646,18.926,6,16,6
			c-2.988,0-5.566,1.666-6.941,4.1C8.707,10.053,8.355,10,8,10c-4.41,0-8,3.588-8,8c0,4.414,3.59,8,8,8h16c4.41,0,8-3.586,8-8
			C32,13.588,28.41,10,24,10z M24,22H8c-2.207,0-4-1.795-4-4c0-2.193,1.941-3.885,4.004-3.945c0.008,0.943,0.172,1.869,0.5,2.744
			l3.746-1.402C12.082,14.953,12,14.482,12,14c0-2.205,1.793-4,4-4c1.293,0,2.465,0.641,3.199,1.639C17.27,13.1,16,15.395,16,18h4
			c0-2.205,1.793-4,4-4s4,1.795,4,4S26.207,22,24,22z"/>
	</g>
</g>
<g>
</g>
<g>
</g>
<g>
</g>
<g>
</g>
<g>
</g>
<g>
</g>
<g>
</g>
<g>
</g>
<g>
</g>
<g>
</g>
<g>
</g>
<g>
</g>
<g>
</g>
<g>
</g>
<g>
</g>
</svg>
